<svg width="19" height="18" viewBox="0 0 19 18" fill="none" xmlns="http://www.w3.org/2000/svg">
<path d="M8.35 13.5H10.15V9.9H13.75V8.1H10.15V4.5H8.35V8.1H4.75V9.9H8.35V13.5ZM9.25 18C8.005 18 6.835 17.7675 5.74 17.3025C4.645 16.8225 3.6925 16.1775 2.8825 15.3675C2.0725 14.5575 1.4275 13.605 0.9475 12.51C0.4825 11.415 0.25 10.245 0.25 9C0.25 7.755 0.4825 6.585 0.9475 5.49C1.4275 4.395 2.0725 3.4425 2.8825 2.6325C3.6925 1.8225 4.645 1.185 5.74 0.719999C6.835 0.24 8.005 0 9.25 0C10.495 0 11.665 0.24 12.76 0.719999C13.855 1.185 14.8075 1.8225 15.6175 2.6325C16.4275 3.4425 17.065 4.395 17.53 5.49C18.01 6.585 18.25 7.755 18.25 9C18.25 10.245 18.01 11.415 17.53 12.51C17.065 13.605 16.4275 14.5575 15.6175 15.3675C14.8075 16.1775 13.855 16.8225 12.76 17.3025C11.665 17.7675 10.495 18 9.25 18ZM9.25 16.2C11.26 16.2 12.9625 15.5025 14.3575 14.1075C15.7525 12.7125 16.45 11.01 16.45 9C16.45 6.99 15.7525 5.2875 14.3575 3.8925C12.9625 2.4975 11.26 1.8 9.25 1.8C7.24 1.8 5.5375 2.4975 4.1425 3.8925C2.7475 5.2875 2.05 6.99 2.05 9C2.05 11.01 2.7475 12.7125 4.1425 14.1075C5.5375 15.5025 7.24 16.2 9.25 16.2Z" fill="#49454F"/>
</svg>
