<svg width="25" height="24" viewBox="0 0 25 24" fill="none" xmlns="http://www.w3.org/2000/svg">
<path d="M12.75 22C12.5167 22 12.3167 21.9333 12.15 21.8C11.9833 21.6667 11.8583 21.4917 11.775 21.275C11.4583 20.3417 11.0583 19.4667 10.575 18.65C10.1083 17.8333 9.45 16.875 8.6 15.775C7.75 14.675 7.05833 13.625 6.525 12.625C6.00833 11.625 5.75 10.4167 5.75 9C5.75 7.05 6.425 5.4 7.775 4.05C9.14167 2.68333 10.8 2 12.75 2C14.7 2 16.35 2.68333 17.7 4.05C19.0667 5.4 19.75 7.05 19.75 9C19.75 10.5167 19.4583 11.7833 18.875 12.8C18.3083 13.8 17.65 14.7917 16.9 15.775C16 16.975 15.3167 17.975 14.85 18.775C14.4 19.5583 14.025 20.3917 13.725 21.275C13.6417 21.5083 13.5083 21.6917 13.325 21.825C13.1583 21.9417 12.9667 22 12.75 22ZM12.75 11.5C13.45 11.5 14.0417 11.2583 14.525 10.775C15.0083 10.2917 15.25 9.7 15.25 9C15.25 8.3 15.0083 7.70833 14.525 7.225C14.0417 6.74167 13.45 6.5 12.75 6.5C12.05 6.5 11.4583 6.74167 10.975 7.225C10.4917 7.70833 10.25 8.3 10.25 9C10.25 9.7 10.4917 10.2917 10.975 10.775C11.4583 11.2583 12.05 11.5 12.75 11.5Z" fill="#49454F"/>
</svg>
